<svg id="svg" version="1.1" xmlns="http://www.w3.org/2000/svg" xmlns:xlink="http://www.w3.org/1999/xlink" width="400" height="397.5429975429975" viewBox="0, 0, 400,397.5429975429975"><g id="svgg"><path id="path0" d="M195.030 48.395 C 175.017 49.515,150.842 56.661,138.518 65.100 C 137.890 65.530,135.586 67.081,133.400 68.547 C 105.688 87.123,87.264 115.150,81.098 148.111 C 79.451 156.918,78.717 171.183,79.544 178.303 C 79.775 180.286,80.221 184.056,80.535 186.680 C 85.073 224.588,112.734 262.734,147.117 278.498 C 148.976 279.350,150.676 280.178,150.895 280.338 C 152.121 281.234,159.673 283.997,166.998 286.230 C 186.528 292.183,213.221 292.264,232.390 286.429 C 239.967 284.122,247.864 281.245,249.105 280.338 C 249.324 280.178,251.023 279.348,252.881 278.493 C 282.856 264.699,310.792 230.346,317.093 199.533 C 317.241 198.806,317.698 196.779,318.108 195.030 C 323.859 170.476,320.124 139.777,308.542 116.410 C 288.686 76.351,251.439 51.602,206.362 48.514 C 200.730 48.128,199.946 48.120,195.030 48.395 M211.526 58.870 C 263.232 63.494,307.227 108.645,310.394 160.338 L 310.656 164.612 272.493 164.612 L 234.330 164.612 233.635 161.376 C 233.252 159.596,232.796 157.851,232.622 157.499 C 232.447 157.147,231.564 155.338,230.659 153.479 C 216.592 124.599,172.396 130.586,166.173 162.214 L 165.702 164.612 127.526 164.612 L 89.350 164.612 89.627 160.229 C 90.280 149.921,93.058 138.259,97.534 127.038 C 108.831 98.716,134.129 74.747,163.618 64.425 C 178.881 59.082,194.130 57.314,211.526 58.870 M197.323 106.660 C 195.285 108.091,195.175 108.756,195.307 118.790 C 195.426 127.851,195.440 127.982,196.381 128.983 C 198.437 131.170,201.563 131.170,203.619 128.983 C 204.738 127.794,205.339 110.879,204.348 108.487 C 203.304 105.965,199.661 105.018,197.323 106.660 M233.732 129.924 L 227.038 136.588 227.038 138.711 C 227.038 141.701,228.796 143.539,231.657 143.539 L 233.572 143.539 240.245 136.866 L 246.918 130.193 246.918 128.207 C 246.918 125.097,245.056 123.260,241.903 123.260 C 240.523 123.260,239.982 123.702,233.732 129.924 M155.237 124.620 C 153.201 125.506,152.211 128.327,153.108 130.686 C 153.601 131.982,164.296 142.935,165.885 143.770 C 169.161 145.491,172.962 143.183,172.962 139.472 C 172.962 137.658,172.441 136.976,166.247 130.688 C 159.456 123.794,158.431 123.229,155.237 124.620 M207.489 145.512 C 215.699 148.364,224.254 157.589,224.254 163.591 C 224.254 164.151,221.768 164.215,199.957 164.215 L 175.659 164.215 175.913 163.204 C 179.383 149.380,194.399 140.966,207.489 145.512 M310.346 179.026 C 310.181 181.486,309.933 184.394,309.795 185.487 L 309.543 187.475 200.000 187.475 L 90.457 187.475 90.205 185.487 C 90.067 184.394,89.819 181.486,89.654 179.026 L 89.355 174.553 200.000 174.553 L 310.645 174.553 310.346 179.026 M307.043 197.831 C 307.278 198.066,306.065 202.122,304.106 207.654 L 302.873 211.133 199.998 211.133 L 97.123 211.133 95.704 207.058 C 94.230 202.825,93.042 198.803,93.042 198.050 C 93.042 197.597,306.591 197.379,307.043 197.831 M297.813 221.532 C 297.813 222.517,291.132 233.519,290.067 234.288 C 289.844 234.449,249.266 234.583,199.892 234.586 L 110.123 234.592 108.839 232.788 C 106.815 229.943,102.187 222.149,102.187 221.585 C 102.187 221.170,120.591 221.074,200.000 221.074 C 273.641 221.074,297.813 221.187,297.813 221.532 M281.909 244.503 C 281.909 244.969,271.994 254.351,269.507 256.239 L 267.642 257.654 199.968 257.654 L 132.295 257.654 129.666 255.521 C 126.311 252.799,118.091 244.969,118.091 244.495 C 118.091 244.281,151.331 244.135,200.000 244.135 C 249.911 244.135,281.909 244.279,281.909 244.503 M252.087 267.529 C 252.087 267.914,246.716 270.631,242.473 272.392 C 215.300 283.670,184.700 283.670,157.527 272.392 C 153.284 270.631,147.913 267.914,147.913 267.529 C 147.913 267.346,171.352 267.197,200.000 267.197 C 228.648 267.197,252.087 267.346,252.087 267.529 M196.915 318.630 C 194.188 321.588,194.258 322.279,197.500 324.427 L 199.297 325.617 200.579 324.638 C 201.285 324.100,202.203 323.017,202.621 322.232 L 203.380 320.804 201.265 318.851 C 198.704 316.488,198.881 316.497,196.915 318.630 M172.366 318.675 C 172.147 318.742,170.939 319.025,169.682 319.303 C 166.904 319.918,166.392 321.267,168.688 321.925 L 169.980 322.296 170.085 334.258 L 170.190 346.221 172.616 346.901 C 180.994 349.252,188.955 345.941,189.888 339.718 C 191.219 330.842,185.687 325.082,180.002 329.423 C 178.999 330.189,178.079 330.815,177.956 330.815 C 177.834 330.815,177.734 328.412,177.734 325.474 L 177.734 320.134 176.579 319.311 C 175.564 318.589,173.604 318.292,172.366 318.675 M211.730 318.915 C 207.148 319.890,206.355 320.799,209.117 321.904 L 210.736 322.552 210.736 333.216 C 210.736 344.098,210.598 345.129,209.145 345.129 C 208.575 345.129,207.532 346.362,207.773 346.752 C 208.353 347.690,221.074 347.175,221.074 346.214 C 221.074 345.589,220.644 345.079,219.682 344.561 L 218.290 343.811 218.290 332.219 L 218.290 320.626 217.175 319.557 C 215.983 318.415,214.756 318.270,211.730 318.915 M243.340 322.033 C 243.340 323.070,243.493 323.225,244.632 323.335 L 245.924 323.459 246.031 333.689 L 246.137 343.918 244.539 344.926 C 241.256 346.999,241.790 347.117,254.450 347.117 C 267.805 347.117,266.497 347.697,266.727 341.683 L 266.898 337.217 265.909 336.969 C 263.238 336.298,262.443 336.781,261.478 339.658 C 260.356 343.001,260.673 342.757,257.096 343.027 L 254.076 343.256 254.076 333.664 L 254.076 324.072 255.691 323.248 C 259.016 321.551,257.899 321.087,250.194 320.965 L 243.340 320.856 243.340 322.033 M108.151 322.621 C 108.151 322.942,108.894 323.441,109.841 323.756 L 111.531 324.318 111.663 326.871 C 111.736 328.275,111.672 332.688,111.521 336.679 L 111.246 343.934 109.698 344.804 C 106.491 346.607,107.428 347.117,113.944 347.117 C 119.679 347.117,119.736 347.109,119.610 346.246 C 119.522 345.641,119.083 345.272,118.172 345.037 C 117.451 344.851,116.792 344.483,116.708 344.218 C 116.415 343.299,116.247 330.402,116.531 330.707 C 116.760 330.952,119.389 338.107,122.174 346.063 C 122.563 347.174,122.612 347.191,124.767 346.921 C 128.218 346.490,127.808 346.998,130.556 339.761 C 133.619 331.696,134.161 330.417,134.520 330.417 C 134.732 330.417,134.788 331.064,134.649 331.909 C 134.513 332.729,134.400 335.763,134.398 338.651 L 134.394 343.903 132.587 344.962 C 129.674 346.669,130.312 346.907,138.133 347.027 L 145.187 347.136 145.059 346.245 C 144.964 345.591,144.548 345.265,143.490 345.016 C 141.653 344.583,141.551 343.945,141.551 332.972 L 141.551 324.902 143.141 324.008 C 146.003 322.400,145.334 322.068,139.234 322.068 L 133.736 322.068 131.227 328.926 C 128.284 336.970,127.209 339.513,126.982 338.966 C 126.891 338.748,125.507 334.901,123.907 330.417 L 120.997 322.266 114.574 322.157 C 109.195 322.066,108.151 322.141,108.151 322.621 M152.730 328.207 C 148.101 329.714,145.533 335.071,146.893 340.380 C 149.782 351.659,166.193 349.485,166.205 337.823 C 166.212 330.577,159.707 325.935,152.730 328.207 M198.012 327.891 C 192.288 328.749,190.316 330.241,193.738 331.127 L 195.030 331.461 195.138 338.021 L 195.247 344.580 193.946 345.153 C 190.918 346.485,192.208 346.918,199.199 346.918 C 206.605 346.918,207.596 346.495,204.396 344.696 L 202.783 343.790 202.783 336.534 L 202.783 329.279 201.628 328.456 C 200.502 327.654,200.058 327.585,198.012 327.891 M229.333 328.211 C 218.963 332.190,221.316 347.392,232.337 347.617 C 234.527 347.662,240.954 344.760,240.954 343.727 C 240.954 343.644,240.755 343.138,240.511 342.603 L 240.068 341.630 238.424 342.377 C 235.510 343.700,232.395 343.125,230.683 340.949 C 228.857 338.627,229.259 338.370,234.717 338.370 C 240.689 338.370,242.086 337.561,241.553 334.409 C 240.714 329.444,234.428 326.255,229.333 328.211 M271.571 328.070 C 266.710 328.824,265.366 330.090,268.390 331.065 L 269.781 331.514 269.980 338.063 C 270.195 345.131,270.240 345.283,272.574 346.726 C 274.604 347.980,276.241 347.840,279.380 346.145 L 282.146 344.651 283.578 346.083 C 285.307 347.812,286.305 347.882,288.916 346.457 C 292.542 344.479,293.341 343.141,290.897 343.141 C 289.110 343.141,289.066 342.963,289.066 335.827 L 289.066 329.771 287.890 328.645 L 286.715 327.519 283.642 328.015 C 279.711 328.649,279.523 328.732,279.523 329.821 C 279.523 330.460,279.820 330.803,280.528 330.981 L 281.533 331.233 281.422 336.889 L 281.312 342.545 280.184 342.674 C 277.842 342.942,277.535 342.110,277.535 335.506 L 277.535 329.584 276.441 328.622 C 275.268 327.589,274.925 327.550,271.571 328.070 M233.024 331.225 C 233.861 331.672,234.990 333.595,234.990 334.573 C 234.990 335.066,234.475 335.189,232.406 335.189 C 229.299 335.189,229.001 334.175,231.325 331.511 C 232.038 330.694,232.034 330.695,233.024 331.225 M157.724 332.655 C 159.167 334.858,158.789 343.492,157.223 344.093 C 155.182 344.876,154.165 342.727,154.149 337.595 C 154.131 331.858,155.742 329.631,157.724 332.655 M180.608 333.585 C 183.873 336.153,182.738 343.936,179.098 343.936 L 177.734 343.936 177.734 338.370 L 177.734 332.803 178.674 332.803 C 179.191 332.803,180.062 333.155,180.608 333.585 " stroke="none" fill="#dae28c" fill-rule="evenodd"></path><path id="path1" d="M183.499 3.613 C 178.907 4.015,174.076 4.524,172.763 4.743 C 171.451 4.963,168.299 5.488,165.758 5.912 C 142.816 9.735,115.478 20.191,96.223 32.508 C 41.947 67.226,8.290 122.877,3.945 185.089 C -3.507 291.767,73.235 383.336,180.119 395.303 C 186.314 395.997,213.686 395.997,219.881 395.303 C 313.797 384.788,385.186 313.400,395.701 219.483 C 396.387 213.352,396.395 185.911,395.711 179.839 C 393.285 158.277,388.728 140.959,380.090 120.477 C 355.397 61.928,296.678 16.002,233.400 5.746 C 231.322 5.410,228.638 4.967,227.435 4.763 C 216.537 2.916,197.215 2.410,183.499 3.613 M212.456 48.520 C 215.118 48.745,218.549 49.198,220.080 49.527 C 221.610 49.856,224.473 50.453,226.441 50.853 C 228.410 51.253,231.541 52.059,233.400 52.643 C 235.258 53.228,238.032 54.080,239.563 54.537 C 241.093 54.994,242.699 55.613,243.130 55.914 C 243.562 56.215,244.154 56.461,244.447 56.461 C 245.366 56.461,255.861 61.470,260.440 64.095 C 276.195 73.122,291.994 88.239,301.915 103.777 C 305.806 109.871,310.956 119.802,312.122 123.459 C 312.400 124.334,312.767 125.229,312.937 125.447 C 313.106 125.666,313.552 126.918,313.927 128.231 C 314.302 129.543,314.750 130.795,314.923 131.014 C 315.096 131.233,315.531 132.575,315.890 133.996 C 316.250 135.417,316.795 137.296,317.101 138.171 C 317.407 139.046,317.854 140.835,318.094 142.147 C 318.334 143.459,318.793 145.632,319.114 146.975 C 321.276 156.021,321.463 179.166,319.461 190.060 C 318.358 196.067,315.768 206.460,314.953 208.151 C 314.742 208.588,314.265 209.930,313.892 211.133 C 313.520 212.336,313.083 213.499,312.922 213.718 C 312.760 213.936,312.400 214.831,312.120 215.706 C 311.558 217.467,307.108 226.729,305.626 229.225 C 305.106 230.099,304.126 231.710,303.448 232.803 C 302.769 233.897,301.938 235.277,301.601 235.870 C 301.038 236.863,298.107 240.972,296.274 243.340 C 290.238 251.138,280.656 260.875,274.553 265.413 C 273.678 266.064,272.873 266.704,272.763 266.836 C 272.654 266.968,271.914 267.506,271.119 268.031 C 270.324 268.556,267.909 270.173,265.751 271.624 C 261.648 274.384,256.984 277.074,253.280 278.815 C 252.078 279.381,250.288 280.235,249.304 280.712 C 248.320 281.190,246.550 281.922,245.371 282.339 C 244.192 282.756,243.029 283.258,242.787 283.454 C 242.544 283.650,241.183 284.127,239.761 284.512 C 238.340 284.898,236.998 285.339,236.779 285.493 C 236.561 285.646,235.129 286.084,233.598 286.465 C 232.068 286.846,230.457 287.314,230.020 287.503 C 229.203 287.857,222.938 289.148,217.296 290.125 C 205.832 292.109,176.584 290.470,169.980 287.473 C 169.543 287.275,167.932 286.814,166.402 286.450 C 164.871 286.085,163.439 285.658,163.221 285.501 C 163.002 285.343,161.660 284.898,160.239 284.512 C 158.817 284.127,157.456 283.650,157.213 283.454 C 156.971 283.258,155.808 282.757,154.629 282.342 C 153.450 281.927,151.003 280.854,149.192 279.959 C 147.381 279.063,145.795 278.330,145.668 278.330 C 144.766 278.330,134.294 271.838,128.658 267.785 C 120.597 261.988,110.672 252.292,104.041 243.738 C 101.802 240.849,98.999 236.959,98.455 235.984 C 98.089 235.328,96.720 233.002,95.414 230.815 C 93.330 227.324,91.997 224.745,89.045 218.489 C 88.032 216.342,85.487 209.661,85.487 209.148 C 85.487 208.922,85.313 208.426,85.100 208.046 C 84.029 206.138,81.252 194.542,80.076 187.078 C 78.710 178.395,79.124 152.052,80.687 148.240 C 80.896 147.732,81.362 145.617,81.724 143.541 C 82.086 141.464,82.621 139.049,82.913 138.173 C 83.205 137.297,83.741 135.417,84.103 133.996 C 84.466 132.575,84.904 131.233,85.076 131.014 C 85.248 130.795,85.665 129.722,86.004 128.628 C 87.594 123.489,92.504 112.647,94.795 109.215 C 95.259 108.521,96.435 106.610,97.408 104.970 C 98.925 102.413,100.080 100.726,103.536 96.024 C 107.995 89.956,121.418 76.346,125.646 73.606 C 126.193 73.252,128.340 71.695,130.417 70.146 C 138.626 64.026,151.508 57.389,160.835 54.474 C 162.147 54.064,164.742 53.247,166.600 52.659 C 168.459 52.070,171.948 51.191,174.354 50.704 C 176.759 50.218,179.175 49.677,179.722 49.503 C 183.402 48.331,203.190 47.737,212.456 48.520 M193.638 58.901 C 184.419 59.481,174.692 61.149,168.700 63.179 C 167.341 63.639,165.999 64.017,165.718 64.018 C 165.438 64.020,164.734 64.269,164.154 64.571 C 163.573 64.874,162.410 65.341,161.569 65.610 C 145.980 70.586,127.451 83.905,114.279 99.602 C 112.085 102.218,112.079 102.225,108.284 107.952 C 104.222 114.081,104.102 114.292,100.696 121.274 C 96.534 129.804,93.850 137.733,91.458 148.560 C 91.034 150.483,89.755 160.998,89.700 163.022 L 89.662 164.414 127.489 164.515 L 165.317 164.616 165.586 162.822 C 167.455 150.358,178.178 138.871,191.252 135.327 C 210.453 130.122,231.523 143.543,234.414 162.820 L 234.683 164.612 272.610 164.612 C 306.964 164.612,310.537 164.553,310.537 163.982 C 310.537 162.695,308.533 147.830,308.167 146.407 C 307.959 145.595,307.503 143.767,307.155 142.346 C 305.848 137.016,301.873 126.020,299.819 122.052 C 299.644 121.716,298.578 119.658,297.449 117.480 C 295.114 112.976,292.385 108.491,290.060 105.338 C 289.186 104.151,288.184 102.734,287.833 102.187 C 285.083 97.893,273.934 86.738,267.396 81.738 C 264.351 79.410,260.052 76.342,259.834 76.342 C 259.742 76.342,258.446 75.552,256.954 74.587 C 248.421 69.067,234.627 63.518,223.658 61.193 C 217.620 59.913,216.455 59.743,210.696 59.294 C 201.907 58.609,199.259 58.548,193.638 58.901 M202.370 105.956 C 205.102 107.369,205.169 107.658,205.169 118.021 C 205.169 127.058,205.138 127.432,204.282 128.681 C 202.404 131.421,198.794 131.691,196.375 129.271 L 194.831 127.728 194.831 118.323 C 194.831 110.126,194.918 108.785,195.510 107.882 C 197.012 105.590,200.026 104.744,202.370 105.956 M244.463 123.296 C 246.908 124.148,248.130 128.127,246.747 130.735 C 245.891 132.350,234.958 143.040,233.672 143.519 C 230.856 144.569,228.110 143.470,226.940 140.825 C 225.630 137.863,226.229 136.778,232.983 129.871 C 239.866 122.834,241.104 122.125,244.463 123.296 M166.089 130.116 C 173.262 137.242,173.885 138.231,173.018 141.124 C 172.316 143.468,170.584 144.732,168.074 144.732 L 166.030 144.732 159.383 138.072 C 155.221 133.902,152.635 131.002,152.467 130.315 C 151.638 126.929,154.163 123.658,157.605 123.658 L 159.588 123.658 166.089 130.116 M194.632 145.272 C 185.715 147.625,178.947 153.925,176.737 161.928 L 176.215 163.817 200.036 163.817 C 213.137 163.817,223.855 163.772,223.853 163.718 C 223.730 160.890,219.751 154.104,216.445 151.084 C 210.823 145.949,201.489 143.462,194.632 145.272 M89.601 175.165 C 89.472 175.502,89.555 176.799,89.787 178.048 C 90.018 179.296,90.322 181.660,90.460 183.300 C 90.599 184.940,90.802 186.595,90.910 186.978 C 91.082 187.585,308.835 188.181,308.968 187.575 C 309.108 186.939,310.522 175.763,310.528 175.249 C 310.541 174.238,89.988 174.155,89.601 175.165 M93.439 198.582 C 93.439 198.896,93.637 199.657,93.878 200.272 C 94.119 200.888,94.668 202.640,95.097 204.166 C 95.527 205.692,96.029 207.124,96.213 207.347 C 96.398 207.571,96.710 208.380,96.908 209.145 L 97.267 210.537 200.014 210.537 L 302.761 210.537 304.645 204.970 C 305.682 201.909,306.537 199.090,306.545 198.708 C 306.560 198.047,301.227 198.012,200.000 198.012 C 107.693 198.012,93.439 198.088,93.439 198.582 M103.306 222.962 C 103.682 223.782,104.273 224.901,104.619 225.447 C 104.966 225.994,106.276 228.096,107.531 230.119 L 109.813 233.797 199.984 233.797 L 290.155 233.797 292.251 230.517 C 293.403 228.713,294.598 226.827,294.907 226.326 C 295.625 225.158,297.416 221.794,297.416 221.611 C 297.416 221.534,253.587 221.471,200.019 221.471 L 102.623 221.471 103.306 222.962 M120.005 246.024 C 121.327 247.687,129.676 255.321,131.459 256.496 C 132.573 257.230,134.467 257.251,200.040 257.254 L 267.475 257.256 269.026 256.125 C 271.412 254.385,278.918 247.464,280.100 245.915 L 281.154 244.533 199.987 244.533 L 118.820 244.533 120.005 246.024 M149.113 267.893 C 149.122 268.225,153.886 270.533,156.376 271.412 C 157.260 271.724,158.177 272.132,158.415 272.319 C 158.653 272.505,159.831 272.974,161.034 273.360 C 162.237 273.746,163.400 274.201,163.618 274.371 C 163.837 274.541,165.179 274.971,166.600 275.326 C 168.022 275.681,169.543 276.142,169.980 276.350 C 180.431 281.315,219.569 281.315,230.020 276.350 C 230.457 276.142,231.978 275.681,233.400 275.326 C 234.821 274.971,236.163 274.541,236.382 274.370 C 236.600 274.200,237.495 273.835,238.370 273.560 C 239.245 273.286,240.765 272.701,241.750 272.260 C 242.734 271.820,244.076 271.249,244.732 270.990 C 247.381 269.946,250.895 268.184,250.895 267.898 C 250.895 267.731,227.992 267.594,200.000 267.594 C 172.008 267.594,149.109 267.729,149.113 267.893 M200.099 317.227 C 203.865 319.710,204.222 321.312,201.639 324.121 C 199.412 326.543,199.170 326.519,195.778 323.534 C 193.765 321.761,193.878 321.135,196.761 318.105 C 198.501 316.275,198.612 316.246,200.099 317.227 M177.050 319.193 C 178.059 320.246,178.110 320.509,178.218 325.159 L 178.330 330.023 180.318 328.601 C 185.117 325.167,190.677 329.573,190.638 336.779 C 190.587 346.139,182.012 350.436,170.477 346.881 C 169.834 346.682,169.781 345.745,169.781 334.610 L 169.781 322.554 168.390 322.293 C 165.739 321.795,166.347 319.521,169.284 318.945 C 174.944 317.837,175.776 317.863,177.050 319.193 M217.453 319.245 L 218.688 320.399 218.688 331.929 L 218.688 343.460 220.106 344.297 C 221.264 344.980,221.501 345.333,221.398 346.225 L 221.272 347.316 214.215 347.425 L 207.157 347.533 207.157 346.563 C 207.157 345.819,207.526 345.422,208.737 344.864 L 210.317 344.135 210.328 333.370 L 210.338 322.605 208.847 322.237 C 205.211 321.339,206.798 319.240,211.638 318.545 C 215.725 317.959,216.128 318.007,217.453 319.245 M257.582 321.768 C 257.510 322.278,256.816 323.073,255.964 323.623 L 254.473 324.587 254.473 333.719 L 254.473 342.852 256.318 342.599 C 257.333 342.460,258.649 342.346,259.244 342.346 C 260.251 342.346,260.375 342.150,261.077 339.463 L 261.829 336.581 264.414 336.581 L 266.998 336.581 266.987 341.352 C 266.971 348.244,268.449 347.515,254.486 347.515 L 242.545 347.515 242.545 346.601 C 242.545 345.964,243.024 345.391,244.124 344.712 L 245.704 343.738 245.715 333.939 C 245.726 323.450,245.766 323.658,243.748 323.658 C 242.989 323.658,242.545 322.911,242.545 321.637 C 242.545 320.912,242.918 320.875,250.127 320.875 L 257.709 320.875 257.582 321.768 M121.149 321.769 C 121.477 322.276,122.666 325.537,124.084 329.821 C 124.518 331.133,125.124 332.744,125.429 333.400 C 125.734 334.056,126.200 335.449,126.463 336.496 C 126.993 338.608,127.204 338.602,127.891 336.455 C 128.149 335.649,128.924 333.559,129.614 331.809 C 130.304 330.060,131.216 327.655,131.641 326.465 C 132.067 325.275,132.716 323.620,133.083 322.787 L 133.751 321.272 139.228 321.272 C 146.293 321.272,147.265 322.149,142.942 324.620 L 141.750 325.302 141.852 332.333 C 142.017 343.642,142.097 344.132,143.862 344.568 C 145.135 344.883,145.344 345.101,145.453 346.223 L 145.577 347.515 138.239 347.515 C 129.753 347.515,128.189 346.713,132.414 344.528 C 133.468 343.983,133.476 343.948,133.717 338.307 C 134.002 331.654,133.959 331.505,132.791 335.064 C 132.302 336.554,131.771 337.952,131.610 338.171 C 131.449 338.390,131.002 339.553,130.616 340.755 C 130.230 341.958,129.783 343.121,129.621 343.340 C 129.460 343.559,129.117 344.393,128.860 345.193 C 128.313 346.893,128.201 346.951,124.753 347.320 L 122.131 347.601 121.324 345.073 C 120.881 343.682,119.957 341.024,119.271 339.165 C 118.585 337.306,117.753 334.923,117.423 333.869 C 116.598 331.237,116.576 331.405,116.853 338.137 L 117.097 344.067 118.372 344.498 C 120.072 345.075,120.497 345.564,120.219 346.627 C 119.904 347.833,107.931 348.042,107.473 346.850 C 107.202 346.144,109.437 343.936,110.422 343.936 C 110.825 343.936,110.934 341.991,110.934 334.824 C 110.934 329.812,111.036 325.446,111.161 325.122 C 111.329 324.683,110.974 324.463,109.769 324.259 C 108.246 324.002,108.151 323.906,108.151 322.629 L 108.151 321.272 114.489 321.272 C 119.124 321.272,120.914 321.406,121.149 321.769 M159.755 327.610 C 166.387 329.512,168.896 339.508,164.090 344.883 C 158.320 351.337,147.232 347.915,146.105 339.332 C 145.051 331.306,151.959 325.374,159.755 327.610 M202.344 328.642 L 203.579 330.048 203.579 336.895 L 203.579 343.742 204.771 344.270 C 205.761 344.708,205.964 345.030,205.964 346.157 L 205.964 347.515 199.006 347.515 L 192.048 347.515 192.048 346.583 C 192.048 345.926,192.459 345.430,193.449 344.897 L 194.850 344.143 194.741 338.001 L 194.632 331.859 193.340 331.524 C 190.418 330.768,191.558 328.659,195.332 327.839 C 199.699 326.890,200.930 327.031,202.344 328.642 M238.278 328.719 C 241.618 331.131,242.941 335.383,241.003 337.475 L 239.806 338.767 235.012 338.767 C 232.376 338.767,230.219 338.866,230.219 338.986 C 230.219 341.748,235.009 343.346,238.685 341.810 C 240.251 341.155,241.352 341.882,241.352 343.571 C 241.352 344.811,235.094 348.115,232.803 348.085 C 225.034 347.982,220.357 341.117,223.087 333.821 C 225.290 327.932,233.413 325.204,238.278 328.719 M276.681 328.243 L 277.877 329.249 278.004 335.415 C 278.140 341.993,278.246 342.326,280.219 342.340 C 281.702 342.350,281.608 331.964,280.119 331.285 C 278.430 330.515,278.726 328.581,280.616 328.040 C 284.390 326.960,287.018 327.031,288.286 328.246 L 289.463 329.373 289.463 335.817 C 289.463 342.779,289.452 342.744,291.683 342.744 C 293.274 342.744,292.961 344.417,291.144 345.619 C 286.761 348.519,285.664 348.603,283.203 346.224 L 281.912 344.977 280.792 345.805 C 276.828 348.736,273.427 348.685,270.766 345.654 L 269.583 344.306 269.583 338.188 L 269.583 332.070 268.191 331.610 C 267.425 331.358,266.799 330.911,266.799 330.618 C 266.799 330.325,266.700 329.827,266.580 329.513 C 266.315 328.823,267.841 328.122,270.620 327.656 C 274.228 327.051,275.401 327.165,276.681 328.243 M231.504 331.943 C 231.072 332.217,230.060 334.834,230.325 334.993 C 230.973 335.383,234.195 334.593,234.195 334.044 C 234.195 332.435,232.640 331.221,231.504 331.943 M155.013 332.903 C 154.001 334.781,154.491 342.108,155.710 343.327 C 157.253 344.870,158.251 342.812,158.249 338.091 C 158.247 333.214,156.422 330.288,155.013 332.903 M178.131 338.370 L 178.131 343.539 179.238 343.539 C 182.212 343.539,183.142 335.721,180.398 333.798 C 178.329 332.349,178.131 332.749,178.131 338.370 " stroke="none" fill="#433c9b" fill-rule="evenodd"></path><path id="path2" d="M0.000 198.807 L 0.000 397.614 200.000 397.614 L 400.000 397.614 400.000 198.807 L 400.000 0.000 200.000 0.000 L 0.000 0.000 0.000 198.807 M215.905 3.591 C 221.044 4.032,226.233 4.559,227.435 4.763 C 228.638 4.967,231.322 5.410,233.400 5.746 C 296.678 16.002,355.397 61.928,380.090 120.477 C 388.728 140.959,393.285 158.277,395.711 179.839 C 396.395 185.911,396.387 213.352,395.701 219.483 C 385.186 313.400,313.797 384.788,219.881 395.303 C 213.686 395.997,186.314 395.997,180.119 395.303 C 102.930 386.661,40.101 336.945,14.237 264.041 C 0.922 226.512,-0.029 182.717,11.615 143.340 C 25.135 97.622,54.438 59.236,96.223 32.508 C 115.478 20.191,142.816 9.735,165.758 5.912 C 168.299 5.488,171.451 4.963,172.763 4.743 C 183.854 2.891,202.082 2.404,215.905 3.591 M195.129 58.737 C 195.840 58.825,197.003 58.825,197.714 58.737 C 198.424 58.649,197.843 58.577,196.421 58.577 C 195.000 58.577,194.418 58.649,195.129 58.737 M202.286 58.737 C 202.997 58.825,204.160 58.825,204.871 58.737 C 205.582 58.649,205.000 58.577,203.579 58.577 C 202.157 58.577,201.576 58.649,202.286 58.737 M187.972 164.115 C 194.587 164.176,205.413 164.176,212.028 164.115 C 218.643 164.054,213.231 164.004,200.000 164.004 C 186.769 164.004,181.357 164.054,187.972 164.115 M195.120 280.605 C 195.826 280.693,197.079 280.694,197.904 280.608 C 198.729 280.522,198.151 280.450,196.620 280.449 C 195.089 280.447,194.414 280.517,195.120 280.605 M201.880 280.605 C 202.586 280.693,203.838 280.694,204.663 280.608 C 205.488 280.522,204.911 280.450,203.380 280.449 C 201.849 280.447,201.174 280.517,201.880 280.605 M111.068 328.032 C 111.068 329.672,111.138 330.343,111.224 329.523 C 111.310 328.703,111.310 327.361,111.224 326.541 C 111.138 325.721,111.068 326.392,111.068 328.032 M203.344 336.779 C 203.344 340.606,203.404 342.172,203.477 340.258 C 203.550 338.345,203.550 335.214,203.477 333.300 C 203.404 331.387,203.344 332.952,203.344 336.779 M133.744 339.761 C 133.745 341.948,133.811 342.792,133.892 341.637 C 133.973 340.481,133.972 338.692,133.890 337.661 C 133.809 336.629,133.743 337.575,133.744 339.761 M266.891 343.539 C 266.891 344.304,266.973 344.617,267.073 344.235 C 267.173 343.852,267.173 343.226,267.073 342.843 C 266.973 342.460,266.891 342.773,266.891 343.539 M178.032 348.193 C 178.524 348.288,179.329 348.288,179.821 348.193 C 180.313 348.098,179.911 348.021,178.926 348.021 C 177.942 348.021,177.540 348.098,178.032 348.193 M232.306 348.187 C 232.689 348.287,233.315 348.287,233.698 348.187 C 234.081 348.087,233.767 348.005,233.002 348.005 C 232.237 348.005,231.923 348.087,232.306 348.187 " stroke="none" fill="#3c63a3" fill-rule="evenodd"></path><path id="path3" d="M182.808 49.188 C 183.302 49.283,184.018 49.279,184.398 49.180 C 184.778 49.080,184.374 49.002,183.499 49.007 C 182.624 49.011,182.313 49.093,182.808 49.188 M215.810 49.188 C 216.304 49.283,217.020 49.279,217.400 49.180 C 217.780 49.080,217.376 49.002,216.501 49.007 C 215.626 49.011,215.315 49.093,215.810 49.188 M188.574 59.132 C 189.178 59.224,190.073 59.221,190.562 59.127 C 191.051 59.032,190.557 58.958,189.463 58.961 C 188.370 58.964,187.970 59.041,188.574 59.132 M209.642 59.132 C 210.244 59.223,211.228 59.223,211.829 59.132 C 212.430 59.041,211.938 58.966,210.736 58.966 C 209.533 58.966,209.041 59.041,209.642 59.132 M254.473 61.013 C 254.473 61.123,255.010 61.490,255.666 61.829 C 256.322 62.168,256.859 62.356,256.859 62.247 C 256.859 62.138,256.322 61.771,255.666 61.431 C 255.010 61.092,254.473 60.904,254.473 61.013 M125.826 87.177 L 124.254 88.867 125.944 87.295 C 127.516 85.833,127.817 85.487,127.516 85.487 C 127.451 85.487,126.691 86.248,125.826 87.177 M273.757 87.078 C 274.612 87.952,275.400 88.668,275.509 88.668 C 275.619 88.668,275.009 87.952,274.155 87.078 C 273.301 86.203,272.513 85.487,272.403 85.487 C 272.294 85.487,272.903 86.203,273.757 87.078 M121.850 90.755 L 120.278 92.445 121.968 90.874 C 123.540 89.412,123.841 89.066,123.540 89.066 C 123.475 89.066,122.715 89.826,121.850 90.755 M277.734 90.656 C 278.588 91.531,279.376 92.247,279.485 92.247 C 279.595 92.247,278.985 91.531,278.131 90.656 C 277.277 89.781,276.489 89.066,276.379 89.066 C 276.270 89.066,276.879 89.781,277.734 90.656 M291.451 90.383 C 291.451 90.451,292.033 91.033,292.744 91.675 L 294.036 92.843 292.868 91.551 C 291.779 90.346,291.451 90.076,291.451 90.383 M117.672 95.328 L 116.302 96.819 117.793 95.449 C 118.613 94.695,119.284 94.024,119.284 93.958 C 119.284 93.654,118.948 93.940,117.672 95.328 M281.113 94.359 C 281.113 94.427,281.695 95.009,282.406 95.651 L 283.698 96.819 282.530 95.527 C 281.441 94.322,281.113 94.052,281.113 94.359 M199.105 105.648 C 199.597 105.743,200.403 105.743,200.895 105.648 C 201.387 105.554,200.984 105.476,200.000 105.476 C 199.016 105.476,198.613 105.554,199.105 105.648 M308.748 116.501 C 309.087 117.157,309.454 117.694,309.563 117.694 C 309.673 117.694,309.484 117.157,309.145 116.501 C 308.806 115.845,308.439 115.308,308.329 115.308 C 308.220 115.308,308.408 115.845,308.748 116.501 M98.673 124.669 C 98.007 126.131,98.134 126.443,98.854 125.114 C 99.191 124.493,99.391 123.911,99.300 123.820 C 99.210 123.729,98.927 124.111,98.673 124.669 M233.394 129.523 L 227.634 135.388 233.499 129.627 C 238.947 124.276,239.544 123.658,239.259 123.658 C 239.202 123.658,236.563 126.297,233.394 129.523 M194.862 126.862 C 194.845 127.203,195.109 127.830,195.449 128.254 C 196.058 129.013,196.062 129.013,195.702 128.231 C 195.501 127.793,195.237 127.167,195.115 126.839 C 194.924 126.324,194.890 126.327,194.862 126.862 M240.567 136.929 L 234.413 143.340 240.294 137.575 C 245.071 132.892,247.625 130.115,246.833 130.468 C 246.771 130.496,243.951 133.403,240.567 136.929 M314.977 132.028 C 315.210 132.695,315.474 133.168,315.564 133.077 C 315.761 132.881,315.011 130.815,314.742 130.815 C 314.639 130.815,314.745 131.361,314.977 132.028 M159.046 137.773 C 162.430 141.163,165.289 143.936,165.398 143.936 C 165.507 143.936,162.828 141.163,159.443 137.773 C 156.059 134.384,153.200 131.610,153.091 131.610 C 152.982 131.610,155.661 134.384,159.046 137.773 M198.111 134.288 C 199.150 134.370,200.850 134.370,201.889 134.288 C 202.927 134.206,202.078 134.139,200.000 134.139 C 197.922 134.139,197.073 134.206,198.111 134.288 M94.279 136.426 C 94.034 137.129,93.903 137.773,93.988 137.858 C 94.073 137.943,94.343 137.438,94.588 136.735 C 94.833 136.032,94.964 135.388,94.879 135.303 C 94.794 135.218,94.524 135.723,94.279 136.426 M316.966 138.370 C 316.986 139.403,317.612 141.100,317.626 140.159 C 317.633 139.722,317.484 139.006,317.296 138.569 C 317.087 138.081,316.959 138.004,316.966 138.370 M82.352 140.027 C 82.327 140.392,82.203 141.018,82.077 141.419 C 81.860 142.109,81.872 142.110,82.303 141.439 C 82.553 141.049,82.677 140.423,82.578 140.047 C 82.416 139.432,82.394 139.430,82.352 140.027 M92.494 142.560 C 92.358 142.915,92.262 143.505,92.281 143.869 C 92.299 144.234,92.473 144.005,92.665 143.360 C 93.040 142.105,92.907 141.484,92.494 142.560 M199.105 144.615 C 199.597 144.709,200.403 144.709,200.895 144.615 C 201.387 144.520,200.984 144.442,200.000 144.442 C 199.016 144.442,198.613 144.520,199.105 144.615 M182.685 151.590 L 181.113 153.280 182.803 151.709 C 184.375 150.247,184.676 149.901,184.375 149.901 C 184.310 149.901,183.550 150.661,182.685 151.590 M216.899 151.491 C 217.753 152.366,218.541 153.082,218.650 153.082 C 218.760 153.082,218.150 152.366,217.296 151.491 C 216.442 150.616,215.654 149.901,215.544 149.901 C 215.435 149.901,216.044 150.616,216.899 151.491 M309.444 154.076 C 309.449 154.950,309.530 155.261,309.625 154.767 C 309.720 154.272,309.717 153.556,309.617 153.176 C 309.518 152.796,309.440 153.201,309.444 154.076 M90.359 154.473 C 90.363 155.348,90.445 155.659,90.540 155.164 C 90.635 154.670,90.631 153.954,90.532 153.574 C 90.432 153.194,90.354 153.598,90.359 154.473 M89.953 157.455 C 89.953 158.221,90.035 158.534,90.135 158.151 C 90.235 157.768,90.235 157.142,90.135 156.759 C 90.035 156.377,89.953 156.690,89.953 157.455 M89.961 181.511 C 89.966 182.386,90.047 182.697,90.142 182.202 C 90.237 181.708,90.234 180.992,90.134 180.612 C 90.035 180.232,89.957 180.636,89.961 181.511 M90.351 184.493 C 90.351 185.258,90.433 185.572,90.533 185.189 C 90.633 184.806,90.633 184.180,90.533 183.797 C 90.433 183.415,90.351 183.728,90.351 184.493 M309.444 185.089 C 309.449 185.964,309.530 186.275,309.625 185.781 C 309.720 185.286,309.717 184.570,309.617 184.190 C 309.518 183.810,309.440 184.215,309.444 185.089 M314.977 207.137 C 314.745 207.804,314.639 208.350,314.742 208.350 C 315.011 208.350,315.761 206.284,315.564 206.088 C 315.474 205.997,315.210 206.470,314.977 207.137 M310.999 217.711 C 310.333 219.173,310.460 219.485,311.180 218.156 C 311.517 217.535,311.717 216.953,311.627 216.862 C 311.536 216.771,311.253 217.153,310.999 217.711 M102.187 221.372 C 102.187 221.536,146.203 221.670,200.000 221.670 C 253.797 221.670,297.813 221.536,297.813 221.372 C 297.813 221.208,253.797 221.074,200.000 221.074 C 146.203 221.074,102.187 221.208,102.187 221.372 M154.771 234.095 C 179.647 234.152,220.353 234.152,245.229 234.095 C 270.104 234.039,249.751 233.993,200.000 233.993 C 150.249 233.993,129.896 234.039,154.771 234.095 M118.489 244.471 C 118.489 244.656,118.892 245.148,119.384 245.565 L 120.278 246.322 119.519 245.426 L 118.760 244.529 200.135 244.630 C 244.892 244.686,281.511 244.597,281.511 244.433 C 281.511 244.269,244.831 244.135,200.000 244.135 C 155.169 244.135,118.489 244.286,118.489 244.471 M120.477 247.043 C 120.477 247.111,121.059 247.693,121.769 248.335 L 123.062 249.503 121.894 248.211 C 120.805 247.006,120.477 246.736,120.477 247.043 M277.911 248.410 L 276.541 249.901 278.032 248.530 C 278.852 247.777,279.523 247.106,279.523 247.039 C 279.523 246.736,279.186 247.022,277.911 248.410 M125.447 251.690 C 126.524 252.783,127.495 253.678,127.604 253.678 C 127.714 253.678,126.922 252.783,125.845 251.690 C 124.768 250.596,123.797 249.702,123.688 249.702 C 123.579 249.702,124.370 250.596,125.447 251.690 M273.956 251.889 C 272.990 252.873,272.290 253.678,272.399 253.678 C 272.508 253.678,273.388 252.873,274.354 251.889 C 275.320 250.905,276.020 250.099,275.911 250.099 C 275.802 250.099,274.922 250.905,273.956 251.889 M132.268 257.356 C 132.509 257.746,267.491 257.746,267.732 257.356 C 267.833 257.192,237.354 257.058,200.000 257.058 C 162.646 257.058,132.167 257.192,132.268 257.356 M118.688 259.642 C 119.542 260.517,120.330 261.233,120.440 261.233 C 120.549 261.233,119.940 260.517,119.085 259.642 C 118.231 258.767,117.443 258.052,117.334 258.052 C 117.224 258.052,117.834 258.767,118.688 259.642 M255.567 277.365 C 254.080 278.171,254.171 278.507,255.666 277.734 C 256.322 277.394,256.859 277.032,256.859 276.928 C 256.859 276.672,256.816 276.687,255.567 277.365 M189.165 280.201 C 189.657 280.296,190.462 280.296,190.954 280.201 C 191.446 280.106,191.044 280.029,190.060 280.029 C 189.076 280.029,188.673 280.106,189.165 280.201 M209.046 280.201 C 209.538 280.296,210.343 280.296,210.835 280.201 C 211.327 280.106,210.924 280.029,209.940 280.029 C 208.956 280.029,208.554 280.106,209.046 280.201 M182.808 290.142 C 183.302 290.237,184.018 290.234,184.398 290.134 C 184.778 290.035,184.374 289.957,183.499 289.961 C 182.624 289.966,182.313 290.047,182.808 290.142 M215.810 290.142 C 216.304 290.237,217.020 290.234,217.400 290.134 C 217.780 290.035,217.376 289.957,216.501 289.961 C 215.626 289.966,215.315 290.047,215.810 290.142 M176.973 319.530 C 177.500 320.212,178.012 320.699,178.110 320.611 C 178.208 320.524,177.776 319.966,177.150 319.372 L 176.013 318.290 176.973 319.530 M207.422 319.549 C 207.041 319.931,207.095 321.585,207.497 321.833 C 207.684 321.949,207.749 321.583,207.642 321.019 C 207.522 320.395,207.661 319.859,207.997 319.646 C 208.301 319.454,208.355 319.294,208.118 319.290 C 207.881 319.287,207.568 319.404,207.422 319.549 M218.466 332.207 C 218.466 338.549,218.521 341.087,218.588 337.848 C 218.655 334.609,218.655 329.421,218.587 326.318 C 218.520 323.215,218.466 325.865,218.466 332.207 M110.139 321.541 C 115.430 321.829,121.183 321.844,121.013 321.571 C 120.911 321.407,117.931 321.306,114.390 321.348 C 110.849 321.389,108.936 321.476,110.139 321.541 M135.586 321.537 C 139.855 321.826,145.041 321.845,144.870 321.571 C 144.768 321.407,142.235 321.305,139.241 321.344 C 136.247 321.383,134.602 321.470,135.586 321.537 M169.958 334.394 C 169.958 341.064,170.012 343.792,170.079 340.457 C 170.145 337.122,170.145 331.665,170.079 328.330 C 170.012 324.995,169.958 327.724,169.958 334.394 M254.341 324.321 C 254.195 324.467,254.076 328.761,254.076 333.863 L 254.076 343.141 255.368 343.082 C 256.591 343.025,256.600 343.013,255.553 342.855 L 254.445 342.688 254.559 333.372 C 254.621 328.247,254.657 324.055,254.639 324.055 C 254.621 324.056,254.486 324.175,254.341 324.321 M141.696 330.616 C 141.697 332.803,141.764 333.647,141.844 332.492 C 141.925 331.336,141.924 329.547,141.842 328.515 C 141.761 327.484,141.695 328.429,141.696 330.616 M288.305 328.675 C 288.832 329.357,289.344 329.844,289.442 329.757 C 289.540 329.669,289.108 329.112,288.482 328.517 L 287.345 327.435 288.305 328.675 M225.028 330.716 L 223.658 332.207 225.149 330.837 C 226.537 329.561,226.823 329.225,226.519 329.225 C 226.453 329.225,225.782 329.896,225.028 330.716 M277.693 334.791 C 277.693 337.962,277.755 339.259,277.830 337.674 C 277.905 336.088,277.905 333.494,277.830 331.909 C 277.755 330.323,277.693 331.620,277.693 334.791 M111.073 333.996 C 111.073 335.855,111.142 336.615,111.226 335.686 C 111.309 334.756,111.309 333.236,111.226 332.306 C 111.142 331.377,111.073 332.137,111.073 333.996 M133.626 331.909 C 133.736 333.074,134.340 333.724,134.366 332.704 C 134.381 332.102,134.215 331.610,133.996 331.610 C 133.777 331.610,133.611 331.745,133.626 331.909 M194.831 338.171 C 194.831 341.561,194.686 344.334,194.509 344.334 C 194.333 344.334,193.840 344.611,193.416 344.950 C 192.734 345.493,192.795 345.492,193.936 344.939 L 195.229 344.314 195.229 338.161 C 195.229 334.777,195.139 332.008,195.030 332.008 C 194.920 332.008,194.831 334.781,194.831 338.171 M190.566 336.779 C 190.566 337.763,190.643 338.166,190.738 337.674 C 190.833 337.182,190.833 336.377,190.738 335.885 C 190.643 335.393,190.566 335.795,190.566 336.779 M146.017 337.575 C 146.017 338.340,146.099 338.653,146.199 338.270 C 146.299 337.888,146.299 337.261,146.199 336.879 C 146.099 336.496,146.017 336.809,146.017 337.575 M222.367 337.773 C 222.371 338.648,222.453 338.959,222.548 338.465 C 222.643 337.970,222.639 337.254,222.540 336.874 C 222.440 336.494,222.362 336.899,222.367 337.773 M263.921 336.663 C 264.416 336.758,265.131 336.754,265.512 336.655 C 265.892 336.555,265.487 336.478,264.612 336.482 C 263.738 336.486,263.427 336.568,263.921 336.663 M266.930 339.761 C 266.931 341.292,267.003 341.870,267.089 341.045 C 267.175 340.220,267.174 338.967,267.086 338.262 C 266.998 337.556,266.928 338.231,266.930 339.761 M292.048 343.936 C 292.048 344.551,292.182 344.970,292.346 344.869 C 292.510 344.768,292.644 344.348,292.644 343.936 C 292.644 343.525,292.510 343.105,292.346 343.004 C 292.182 342.902,292.048 343.322,292.048 343.936 " stroke="none" fill="#857593" fill-rule="evenodd"></path><path id="path4" d="M192.942 48.401 C 193.762 48.487,195.104 48.487,195.924 48.401 C 196.745 48.315,196.074 48.245,194.433 48.245 C 192.793 48.245,192.122 48.315,192.942 48.401 M204.076 48.401 C 204.896 48.487,206.238 48.487,207.058 48.401 C 207.878 48.315,207.207 48.245,205.567 48.245 C 203.926 48.245,203.255 48.315,204.076 48.401 M187.773 48.794 C 188.375 48.885,189.359 48.885,189.960 48.794 C 190.562 48.703,190.070 48.628,188.867 48.628 C 187.664 48.628,187.172 48.703,187.773 48.794 M210.040 48.794 C 210.641 48.885,211.625 48.885,212.227 48.794 C 212.828 48.703,212.336 48.628,211.133 48.628 C 209.930 48.628,209.438 48.703,210.040 48.794 M173.956 50.895 C 172.943 51.330,173.988 51.330,175.348 50.895 C 176.147 50.639,176.186 50.574,175.547 50.565 C 175.109 50.558,174.394 50.707,173.956 50.895 M224.652 50.895 C 226.012 51.330,227.057 51.330,226.044 50.895 C 225.606 50.707,224.891 50.558,224.453 50.565 C 223.814 50.574,223.853 50.639,224.652 50.895 M183.603 59.526 C 184.098 59.621,184.813 59.617,185.194 59.518 C 185.574 59.418,185.169 59.340,184.294 59.345 C 183.419 59.349,183.108 59.431,183.603 59.526 M215.015 59.526 C 215.509 59.621,216.225 59.617,216.605 59.518 C 216.985 59.418,216.581 59.340,215.706 59.345 C 214.831 59.349,214.520 59.431,215.015 59.526 M174.155 61.233 C 173.336 61.495,173.301 61.557,173.956 61.584 C 174.394 61.603,175.020 61.445,175.348 61.233 C 176.045 60.782,175.561 60.782,174.155 61.233 M224.652 61.214 C 224.980 61.436,225.591 61.621,226.011 61.624 C 227.028 61.632,226.711 61.405,225.249 61.078 C 224.377 60.883,224.217 60.920,224.652 61.214 M233.797 63.817 C 235.613 64.516,236.327 64.506,234.791 63.803 C 234.135 63.502,233.330 63.262,233.002 63.269 C 232.674 63.276,233.032 63.522,233.797 63.817 M150.596 69.810 C 149.110 70.616,149.200 70.952,150.696 70.179 C 151.352 69.840,151.889 69.477,151.889 69.373 C 151.889 69.118,151.846 69.132,150.596 69.810 M248.111 69.363 C 248.111 69.473,248.648 69.840,249.304 70.179 C 249.960 70.518,250.497 70.706,250.497 70.597 C 250.497 70.488,249.960 70.121,249.304 69.781 C 248.648 69.442,248.111 69.254,248.111 69.363 M120.651 78.032 L 119.483 79.324 120.775 78.156 C 121.980 77.068,122.250 76.740,121.943 76.740 C 121.875 76.740,121.293 77.321,120.651 78.032 M114.705 83.598 L 110.338 88.072 114.811 83.705 C 118.966 79.648,119.465 79.125,119.178 79.125 C 119.120 79.125,117.107 81.138,114.705 83.598 M284.891 83.499 C 287.289 85.905,289.340 87.873,289.450 87.873 C 289.559 87.873,287.686 85.905,285.288 83.499 C 282.890 81.093,280.839 79.125,280.729 79.125 C 280.620 79.125,282.493 81.093,284.891 83.499 M118.865 93.738 L 117.495 95.229 118.986 93.858 C 120.374 92.583,120.660 92.247,120.356 92.247 C 120.290 92.247,119.619 92.917,118.865 93.738 M280.915 93.837 C 281.769 94.712,282.557 95.427,282.666 95.427 C 282.776 95.427,282.166 94.712,281.312 93.837 C 280.458 92.962,279.670 92.247,279.560 92.247 C 279.451 92.247,280.060 92.962,280.915 93.837 M195.000 118.091 C 195.000 122.793,195.057 124.717,195.128 122.366 C 195.198 120.015,195.198 116.168,195.128 113.817 C 195.057 111.466,195.000 113.390,195.000 118.091 M204.941 118.290 C 204.941 123.101,204.999 125.015,205.068 122.543 C 205.138 120.070,205.138 116.134,205.068 113.795 C 204.998 111.456,204.941 113.479,204.941 118.290 M233.623 129.708 L 227.237 136.156 233.795 129.808 C 237.403 126.316,240.429 123.415,240.522 123.360 C 240.614 123.305,240.536 123.260,240.349 123.260 C 240.163 123.260,237.136 126.162,233.623 129.708 M243.771 123.381 C 243.862 123.447,244.473 123.815,245.129 124.200 L 246.322 124.898 245.383 124.079 C 244.867 123.629,244.256 123.260,244.025 123.260 C 243.794 123.260,243.680 123.315,243.771 123.381 M155.865 124.050 C 155.459 124.309,155.776 124.353,156.859 124.187 C 158.824 123.886,159.159 123.656,157.621 123.664 C 156.983 123.667,156.193 123.841,155.865 124.050 M247.027 128.032 C 247.027 129.016,247.104 129.418,247.199 128.926 C 247.294 128.434,247.294 127.629,247.199 127.137 C 247.104 126.645,247.027 127.048,247.027 128.032 M239.960 137.177 C 236.685 140.457,234.095 143.141,234.205 143.141 C 234.314 143.141,237.083 140.457,240.358 137.177 C 243.633 133.897,246.223 131.213,246.113 131.213 C 246.004 131.213,243.235 133.897,239.960 137.177 M196.720 134.674 C 197.212 134.769,198.017 134.769,198.509 134.674 C 199.001 134.579,198.598 134.502,197.614 134.502 C 196.630 134.502,196.228 134.579,196.720 134.674 M201.893 134.675 C 202.388 134.770,203.104 134.766,203.484 134.667 C 203.864 134.567,203.459 134.489,202.584 134.494 C 201.710 134.498,201.399 134.580,201.893 134.675 M226.732 138.767 C 226.732 139.533,226.814 139.846,226.914 139.463 C 227.014 139.081,227.014 138.454,226.914 138.072 C 226.814 137.689,226.732 138.002,226.732 138.767 M223.857 144.135 C 224.599 144.901,225.295 145.527,225.405 145.527 C 225.514 145.527,224.996 144.901,224.254 144.135 C 223.513 143.370,222.816 142.744,222.707 142.744 C 222.597 142.744,223.115 143.370,223.857 144.135 M175.522 144.433 L 174.354 145.726 175.646 144.558 C 176.357 143.916,176.938 143.334,176.938 143.266 C 176.938 142.958,176.610 143.229,175.522 144.433 M196.327 144.615 C 196.821 144.710,197.537 144.707,197.917 144.607 C 198.297 144.508,197.893 144.430,197.018 144.434 C 196.143 144.439,195.832 144.520,196.327 144.615 M202.291 144.615 C 202.786 144.710,203.501 144.707,203.881 144.607 C 204.262 144.508,203.857 144.430,202.982 144.434 C 202.107 144.439,201.796 144.520,202.291 144.615 M319.790 153.877 C 319.790 154.861,319.868 155.263,319.963 154.771 C 320.057 154.279,320.057 153.474,319.963 152.982 C 319.868 152.490,319.790 152.893,319.790 153.877 M80.021 154.076 C 80.025 154.950,80.107 155.261,80.202 154.767 C 80.297 154.272,80.293 153.556,80.194 153.176 C 80.094 152.796,80.016 153.201,80.021 154.076 M79.637 157.654 C 79.640 158.748,79.717 159.148,79.808 158.543 C 79.900 157.939,79.897 157.044,79.803 156.555 C 79.708 156.066,79.634 156.561,79.637 157.654 M223.527 161.829 C 223.547 162.862,224.173 164.559,224.187 163.618 C 224.193 163.181,224.045 162.465,223.857 162.028 C 223.648 161.541,223.520 161.464,223.527 161.829 M79.637 181.113 C 79.640 182.207,79.717 182.607,79.808 182.002 C 79.900 181.398,79.897 180.503,79.803 180.014 C 79.708 179.525,79.634 180.020,79.637 181.113 M320.172 182.107 C 320.172 182.873,320.254 183.186,320.354 182.803 C 320.454 182.420,320.454 181.794,320.354 181.412 C 320.254 181.029,320.172 181.342,320.172 182.107 M80.013 184.891 C 80.013 185.656,80.095 185.969,80.195 185.586 C 80.295 185.204,80.295 184.578,80.195 184.195 C 80.095 183.812,80.013 184.125,80.013 184.891 M319.782 185.089 C 319.787 185.964,319.868 186.275,319.963 185.781 C 320.058 185.286,320.055 184.570,319.955 184.190 C 319.856 183.810,319.778 184.215,319.782 185.089 M81.915 196.256 C 81.918 196.675,82.102 197.286,82.324 197.614 C 82.619 198.050,82.656 197.889,82.461 197.018 C 82.134 195.556,81.907 195.239,81.915 196.256 M131.610 197.910 C 235.258 198.181,307.262 198.182,307.096 197.913 C 306.994 197.749,258.746 197.658,199.877 197.712 C 141.008 197.765,110.288 197.855,131.610 197.910 M315.535 204.601 C 315.389 205.184,315.346 205.737,315.440 205.831 C 315.534 205.925,315.730 205.524,315.876 204.942 C 316.022 204.359,316.065 203.806,315.972 203.712 C 315.878 203.618,315.682 204.018,315.535 204.601 M85.715 209.543 C 85.861 210.089,86.147 210.805,86.349 211.133 C 86.605 211.548,86.637 211.426,86.452 210.736 C 86.306 210.189,86.020 209.473,85.818 209.145 C 85.562 208.731,85.530 208.852,85.715 209.543 M148.410 211.034 C 176.784 211.090,223.216 211.090,251.590 211.034 C 279.965 210.977,256.750 210.931,200.000 210.931 C 143.250 210.931,120.035 210.977,148.410 211.034 M154.970 234.493 C 179.737 234.550,220.263 234.550,245.030 234.493 C 269.796 234.436,249.533 234.390,200.000 234.390 C 150.467 234.390,130.204 234.436,154.970 234.493 M118.091 244.392 C 118.091 244.606,118.673 245.307,119.384 245.949 L 120.676 247.117 119.483 245.728 C 118.827 244.963,118.246 244.263,118.191 244.170 C 118.136 244.078,118.091 244.178,118.091 244.392 M280.546 245.688 L 279.382 247.117 280.724 245.838 C 281.462 245.134,281.986 244.491,281.888 244.409 C 281.790 244.326,281.186 244.902,280.546 245.688 M113.718 254.672 C 115.567 256.531,117.169 258.052,117.279 258.052 C 117.388 258.052,115.964 256.531,114.115 254.672 C 112.266 252.813,110.664 251.292,110.554 251.292 C 110.445 251.292,111.869 252.813,113.718 254.672 M287.261 253.380 L 285.288 255.467 287.376 253.494 C 289.315 251.661,289.646 251.292,289.349 251.292 C 289.286 251.292,288.347 252.232,287.261 253.380 M283.478 257.157 L 282.107 258.648 283.598 257.278 C 284.418 256.524,285.089 255.853,285.089 255.787 C 285.089 255.483,284.753 255.769,283.478 257.157 M278.901 261.332 L 277.734 262.624 279.026 261.456 C 279.737 260.814,280.318 260.233,280.318 260.164 C 280.318 259.857,279.990 260.127,278.901 261.332 M147.913 267.495 C 147.913 267.659,171.352 267.793,200.000 267.793 C 228.648 267.793,252.087 267.659,252.087 267.495 C 252.087 267.331,228.648 267.197,200.000 267.197 C 171.352 267.197,147.913 267.331,147.913 267.495 M165.209 275.362 C 165.865 275.663,166.670 275.903,166.998 275.896 C 167.326 275.889,166.968 275.643,166.203 275.348 C 164.387 274.649,163.673 274.659,165.209 275.362 M233.201 275.547 C 232.700 275.762,232.626 275.888,233.002 275.888 C 233.330 275.888,233.956 275.735,234.394 275.547 C 234.895 275.331,234.968 275.205,234.592 275.205 C 234.264 275.205,233.638 275.359,233.201 275.547 M184.001 279.804 C 184.495 279.899,185.211 279.896,185.591 279.796 C 185.971 279.697,185.567 279.619,184.692 279.623 C 183.817 279.628,183.506 279.709,184.001 279.804 M214.617 279.804 C 215.112 279.899,215.827 279.896,216.207 279.796 C 216.588 279.697,216.183 279.619,215.308 279.623 C 214.433 279.628,214.122 279.709,214.617 279.804 M173.956 288.270 C 174.394 288.458,175.109 288.607,175.547 288.600 C 176.186 288.591,176.147 288.526,175.348 288.270 C 173.988 287.835,172.943 287.835,173.956 288.270 M187.773 290.543 C 188.375 290.634,189.359 290.634,189.960 290.543 C 190.562 290.452,190.070 290.378,188.867 290.378 C 187.664 290.378,187.172 290.452,187.773 290.543 M210.040 290.543 C 210.641 290.634,211.625 290.634,212.227 290.543 C 212.828 290.452,212.336 290.378,211.133 290.378 C 209.930 290.378,209.438 290.452,210.040 290.543 M193.152 290.948 C 194.087 291.032,195.518 291.031,196.333 290.945 C 197.147 290.860,196.382 290.791,194.632 290.792 C 192.883 290.794,192.216 290.864,193.152 290.948 M203.887 290.948 C 204.822 291.032,206.254 291.031,207.068 290.945 C 207.882 290.860,207.117 290.791,205.368 290.792 C 203.618 290.794,202.952 290.864,203.887 290.948 M196.999 318.191 L 195.427 319.881 197.117 318.309 C 198.689 316.847,198.990 316.501,198.689 316.501 C 198.624 316.501,197.864 317.261,196.999 318.191 M208.946 319.284 C 208.445 319.500,208.372 319.626,208.748 319.626 C 209.076 319.626,209.702 319.472,210.139 319.284 C 210.640 319.069,210.714 318.943,210.338 318.943 C 210.010 318.943,209.384 319.096,208.946 319.284 M167.158 320.871 C 167.183 321.514,167.444 321.884,167.900 321.924 C 168.347 321.964,168.392 321.920,168.024 321.804 C 167.705 321.703,167.371 321.229,167.282 320.751 C 167.149 320.034,167.127 320.055,167.158 320.871 M177.820 325.746 C 177.734 330.767,177.920 331.467,178.977 330.119 C 179.470 329.491,179.456 329.476,178.840 329.959 C 178.203 330.458,178.148 330.159,178.031 325.585 L 177.906 320.676 177.820 325.746 M243.035 322.068 C 243.035 322.833,243.116 323.146,243.216 322.763 C 243.316 322.381,243.316 321.754,243.216 321.372 C 243.116 320.989,243.035 321.302,243.035 322.068 M110.139 321.939 C 115.430 322.226,121.183 322.242,121.013 321.968 C 120.911 321.804,117.931 321.704,114.390 321.745 C 110.849 321.787,108.936 321.874,110.139 321.939 M138.950 321.962 C 142.735 322.050,144.610 322.245,144.845 322.576 C 145.093 322.926,145.144 322.894,145.027 322.465 C 144.893 321.971,143.881 321.866,139.132 321.851 L 133.400 321.833 138.950 321.962 M210.512 333.201 C 210.512 339.215,210.568 341.675,210.635 338.668 C 210.703 335.661,210.703 330.741,210.635 327.734 C 210.568 324.727,210.512 327.187,210.512 333.201 M245.030 323.511 C 245.926 323.776,246.113 343.343,245.229 344.335 C 244.805 344.810,244.836 344.813,245.434 344.360 C 246.588 343.486,246.297 323.508,245.129 323.388 C 244.511 323.324,244.489 323.352,245.030 323.511 M110.824 324.340 C 111.162 324.580,111.349 326.568,111.437 330.832 L 111.564 336.978 111.547 330.649 C 111.534 325.370,111.432 324.293,110.934 324.157 C 110.504 324.040,110.473 324.091,110.824 324.340 M155.368 327.517 C 155.860 327.612,156.665 327.612,157.157 327.517 C 157.649 327.422,157.247 327.345,156.262 327.345 C 155.278 327.345,154.876 327.422,155.368 327.517 M232.107 327.517 C 232.599 327.612,233.405 327.612,233.897 327.517 C 234.389 327.422,233.986 327.345,233.002 327.345 C 232.018 327.345,231.615 327.422,232.107 327.517 M286.282 327.516 C 286.610 327.636,287.416 328.203,288.072 328.777 L 289.264 329.821 288.097 328.529 C 287.454 327.818,286.649 327.251,286.307 327.268 C 285.772 327.295,285.769 327.329,286.282 327.516 M181.562 327.949 C 181.455 328.122,182.026 328.198,182.831 328.119 C 185.032 327.901,185.294 327.701,183.423 327.666 C 182.507 327.648,181.669 327.776,181.562 327.949 M196.724 327.915 C 197.219 328.011,197.935 328.007,198.315 327.907 C 198.695 327.808,198.290 327.730,197.416 327.734 C 196.541 327.739,196.230 327.820,196.724 327.915 M271.476 327.915 C 271.970 328.011,272.686 328.007,273.066 327.907 C 273.446 327.808,273.042 327.730,272.167 327.734 C 271.292 327.739,270.981 327.820,271.476 327.915 M149.084 330.318 L 147.714 331.809 149.205 330.439 C 150.593 329.164,150.879 328.827,150.575 328.827 C 150.509 328.827,149.838 329.498,149.084 330.318 M202.949 336.581 C 202.949 340.736,203.008 342.381,203.080 340.238 C 203.152 338.094,203.151 334.695,203.079 332.683 C 203.007 330.672,202.949 332.425,202.949 336.581 M289.227 336.183 C 289.227 339.682,289.288 341.060,289.362 339.246 C 289.436 337.431,289.435 334.568,289.361 332.884 C 289.286 331.199,289.226 332.684,289.227 336.183 M116.103 331.587 C 116.103 332.256,116.172 332.803,116.256 332.803 C 116.593 332.803,116.768 330.781,116.448 330.583 C 116.258 330.466,116.103 330.918,116.103 331.587 M133.890 330.917 C 133.784 331.191,133.944 331.645,134.245 331.926 C 134.699 332.351,134.791 332.266,134.791 331.427 C 134.791 330.375,134.221 330.052,133.890 330.917 M231.325 331.511 C 230.519 332.435,229.819 333.819,229.830 334.467 C 229.835 334.755,230.175 334.248,230.587 333.341 C 230.999 332.434,231.666 331.500,232.070 331.266 C 232.473 331.031,232.607 330.834,232.368 330.827 C 232.128 330.821,231.659 331.128,231.325 331.511 M269.074 331.497 C 269.407 331.734,269.600 333.646,269.688 337.591 L 269.816 343.340 269.799 337.408 C 269.784 332.483,269.680 331.449,269.185 331.315 C 268.755 331.198,268.724 331.249,269.074 331.497 M281.112 336.860 C 281.003 340.075,281.054 342.566,281.224 342.395 C 281.395 342.224,281.484 339.593,281.422 336.549 L 281.309 331.014 281.112 336.860 M177.821 338.469 L 177.908 344.135 178.031 338.694 C 178.149 333.434,178.183 333.248,179.037 333.082 C 179.781 332.938,179.748 332.903,178.827 332.857 L 177.734 332.803 177.821 338.469 M133.994 338.848 C 133.886 341.845,133.937 344.157,134.108 343.985 C 134.279 343.813,134.367 341.362,134.305 338.536 L 134.192 333.400 133.994 338.848 M146.570 334.210 C 146.434 334.566,146.343 335.334,146.368 335.917 C 146.402 336.712,146.491 336.579,146.723 335.388 C 147.053 333.698,146.980 333.141,146.570 334.210 M234.592 334.167 C 234.592 334.480,234.190 334.813,233.698 334.908 C 232.931 335.056,232.959 335.088,233.897 335.135 C 234.743 335.177,234.990 335.009,234.990 334.394 C 234.990 333.956,234.901 333.598,234.791 333.598 C 234.682 333.598,234.592 333.854,234.592 334.167 M190.190 336.581 C 190.192 338.111,190.264 338.689,190.350 337.864 C 190.436 337.039,190.434 335.786,190.347 335.081 C 190.259 334.375,190.188 335.050,190.190 336.581 M141.698 338.370 C 141.698 340.666,141.764 341.605,141.844 340.457 C 141.924 339.309,141.924 337.430,141.844 336.282 C 141.764 335.134,141.698 336.074,141.698 338.370 M158.359 336.382 C 158.359 337.366,158.436 337.768,158.531 337.276 C 158.626 336.784,158.626 335.979,158.531 335.487 C 158.436 334.995,158.359 335.398,158.359 336.382 M116.568 340.036 C 116.531 342.374,116.635 344.371,116.799 344.473 C 116.963 344.575,117.049 343.288,116.990 341.613 C 116.800 336.271,116.637 335.659,116.568 340.036 M153.977 337.376 C 153.981 338.250,154.063 338.562,154.158 338.067 C 154.253 337.572,154.249 336.857,154.150 336.476 C 154.050 336.096,153.973 336.501,153.977 337.376 M166.311 337.972 C 166.311 338.956,166.389 339.359,166.483 338.867 C 166.578 338.375,166.578 337.570,166.483 337.078 C 166.389 336.585,166.311 336.988,166.311 337.972 M240.567 337.364 C 239.695 338.293,239.370 338.354,234.633 338.471 L 229.622 338.595 234.617 338.681 L 239.613 338.767 240.755 337.575 C 241.384 336.918,241.807 336.382,241.694 336.382 C 241.582 336.382,241.075 336.824,240.567 337.364 M110.931 340.638 C 110.824 342.651,110.877 344.155,111.051 343.981 C 111.224 343.806,111.312 342.159,111.247 340.321 L 111.127 336.978 110.931 340.638 M146.328 339.596 C 146.332 340.124,146.510 340.825,146.725 341.153 C 147.000 341.573,147.040 341.337,146.861 340.358 C 146.546 338.643,146.320 338.320,146.328 339.596 M158.351 340.159 C 158.355 341.034,158.437 341.345,158.532 340.850 C 158.627 340.356,158.623 339.640,158.524 339.260 C 158.424 338.880,158.346 339.284,158.351 340.159 M229.833 339.410 C 229.815 340.066,231.345 341.888,232.337 342.392 C 232.911 342.684,232.780 342.449,231.946 341.694 C 231.256 341.068,230.501 340.199,230.268 339.761 C 230.036 339.324,229.840 339.166,229.833 339.410 M277.560 340.793 C 277.530 341.558,278.768 342.753,279.554 342.718 C 279.865 342.704,279.712 342.530,279.215 342.330 C 278.718 342.130,278.148 341.560,277.948 341.063 C 277.714 340.481,277.576 340.385,277.560 340.793 M234.493 343.024 C 234.985 343.119,235.790 343.119,236.282 343.024 C 236.774 342.929,236.372 342.852,235.388 342.852 C 234.404 342.852,234.001 342.929,234.493 343.024 M289.960 343.018 C 290.343 343.118,290.969 343.118,291.352 343.018 C 291.735 342.918,291.421 342.836,290.656 342.836 C 289.891 342.836,289.578 342.918,289.960 343.018 M163.248 345.100 C 162.635 345.741,161.612 346.480,160.974 346.744 C 160.337 347.008,159.894 347.303,159.990 347.399 C 160.307 347.716,162.405 346.415,163.593 345.165 C 164.236 344.489,164.672 343.936,164.562 343.936 C 164.453 343.936,163.862 344.460,163.248 345.100 M203.579 344.115 C 203.579 344.224,204.115 344.591,204.771 344.930 C 205.427 345.270,205.964 345.458,205.964 345.348 C 205.964 345.239,205.427 344.872,204.771 344.533 C 204.115 344.194,203.579 344.005,203.579 344.115 M128.429 345.035 C 128.429 345.274,128.148 345.751,127.805 346.095 C 127.461 346.439,127.365 346.720,127.592 346.720 C 128.095 346.720,128.982 345.152,128.660 344.830 C 128.533 344.703,128.429 344.795,128.429 345.035 M119.577 346.082 L 119.770 347.095 114.060 347.223 L 108.350 347.351 114.110 347.334 C 120.025 347.316,121.230 346.916,119.769 345.454 C 119.520 345.205,119.452 345.428,119.577 346.082 M192.176 346.163 C 191.743 347.292,192.925 347.504,199.205 347.425 L 205.368 347.347 199.006 347.133 C 193.265 346.939,192.650 346.851,192.699 346.223 C 192.768 345.353,192.499 345.322,192.176 346.163 M170.775 346.720 C 171.213 346.908,171.839 347.061,172.167 347.061 C 172.543 347.061,172.469 346.935,171.968 346.720 C 171.531 346.532,170.905 346.378,170.577 346.378 C 170.201 346.378,170.274 346.504,170.775 346.720 M207.902 347.227 C 208.072 347.396,211.150 347.485,214.742 347.425 L 221.272 347.314 214.432 347.116 C 210.670 347.007,207.732 347.057,207.902 347.227 M254.672 347.117 L 243.141 347.334 254.549 347.425 C 261.824 347.482,266.046 347.371,266.203 347.117 C 266.338 346.899,266.393 346.760,266.326 346.810 C 266.258 346.860,261.014 346.998,254.672 347.117 M134.910 347.414 C 136.834 347.487,139.876 347.486,141.670 347.413 C 143.463 347.339,141.889 347.280,138.171 347.280 C 134.453 347.280,132.986 347.341,134.910 347.414 " stroke="none" fill="#8c9494" fill-rule="evenodd"></path></g></svg>